<svg width="86" height="21" viewBox="0 0 86 21" fill="none" xmlns="http://www.w3.org/2000/svg">
<path d="M22.2109 12.9307H23.8984C23.8105 13.7393 23.5791 14.4629 23.2041 15.1016C22.8291 15.7402 22.2988 16.2471 21.6133 16.6221C20.9277 16.9912 20.0723 17.1758 19.0469 17.1758C18.2969 17.1758 17.6143 17.0352 16.999 16.7539C16.3896 16.4727 15.8652 16.0742 15.4258 15.5586C14.9863 15.0371 14.6465 14.4131 14.4062 13.6865C14.1719 12.9541 14.0547 12.1396 14.0547 11.2432V9.96875C14.0547 9.07227 14.1719 8.26074 14.4062 7.53418C14.6465 6.80176 14.9893 6.1748 15.4346 5.65332C15.8857 5.13184 16.4277 4.73047 17.0605 4.44922C17.6934 4.16797 18.4053 4.02734 19.1963 4.02734C20.1631 4.02734 20.9805 4.20898 21.6484 4.57227C22.3164 4.93555 22.835 5.43945 23.2041 6.08398C23.5791 6.72266 23.8105 7.46387 23.8984 8.30762H22.2109C22.1289 7.70996 21.9766 7.19727 21.7539 6.76953C21.5312 6.33594 21.2148 6.00195 20.8047 5.76758C20.3945 5.5332 19.8584 5.41602 19.1963 5.41602C18.6279 5.41602 18.127 5.52441 17.6934 5.74121C17.2656 5.95801 16.9053 6.26563 16.6123 6.66406C16.3252 7.0625 16.1084 7.54004 15.9619 8.09668C15.8154 8.65332 15.7422 9.27148 15.7422 9.95117V11.2432C15.7422 11.8701 15.8066 12.459 15.9355 13.0098C16.0703 13.5605 16.2725 14.0439 16.542 14.46C16.8115 14.876 17.1543 15.2041 17.5703 15.4443C17.9863 15.6787 18.4785 15.7959 19.0469 15.7959C19.7676 15.7959 20.3418 15.6816 20.7695 15.4531C21.1973 15.2246 21.5195 14.8965 21.7363 14.4688C21.959 14.041 22.1172 13.5283 22.2109 12.9307ZM31.5713 15.374V10.4785C31.5713 10.1035 31.4951 9.77832 31.3428 9.50293C31.1963 9.22168 30.9736 9.00488 30.6748 8.85254C30.376 8.7002 30.0068 8.62402 29.5674 8.62402C29.1572 8.62402 28.7969 8.69434 28.4863 8.83496C28.1816 8.97559 27.9414 9.16016 27.7656 9.38867C27.5957 9.61719 27.5107 9.86328 27.5107 10.127H25.8848C25.8848 9.78711 25.9727 9.4502 26.1484 9.11621C26.3242 8.78223 26.5762 8.48047 26.9043 8.21094C27.2383 7.93555 27.6367 7.71875 28.0996 7.56055C28.5684 7.39648 29.0898 7.31445 29.6641 7.31445C30.3555 7.31445 30.9648 7.43164 31.4922 7.66602C32.0254 7.90039 32.4414 8.25488 32.7402 8.72949C33.0449 9.19824 33.1973 9.78711 33.1973 10.4961V14.9258C33.1973 15.2422 33.2236 15.5791 33.2764 15.9365C33.335 16.2939 33.4199 16.6016 33.5312 16.8594V17H31.835C31.7529 16.8125 31.6885 16.5635 31.6416 16.2529C31.5947 15.9365 31.5713 15.6436 31.5713 15.374ZM31.8525 11.2344L31.8701 12.377H30.2266C29.7637 12.377 29.3506 12.415 28.9873 12.4912C28.624 12.5615 28.3193 12.6699 28.0732 12.8164C27.8271 12.9629 27.6396 13.1475 27.5107 13.3701C27.3818 13.5869 27.3174 13.8418 27.3174 14.1348C27.3174 14.4336 27.3848 14.7061 27.5195 14.9521C27.6543 15.1982 27.8564 15.3945 28.126 15.541C28.4014 15.6816 28.7383 15.752 29.1367 15.752C29.6348 15.752 30.0742 15.6465 30.4551 15.4355C30.8359 15.2246 31.1377 14.9668 31.3604 14.6621C31.5889 14.3574 31.7119 14.0615 31.7295 13.7744L32.4238 14.5566C32.3828 14.8027 32.2715 15.0752 32.0898 15.374C31.9082 15.6729 31.665 15.96 31.3604 16.2354C31.0615 16.5049 30.7041 16.7305 30.2881 16.9121C29.8779 17.0879 29.415 17.1758 28.8994 17.1758C28.2549 17.1758 27.6895 17.0498 27.2031 16.7979C26.7227 16.5459 26.3477 16.209 26.0781 15.7871C25.8145 15.3594 25.6826 14.8818 25.6826 14.3545C25.6826 13.8447 25.7822 13.3965 25.9814 13.0098C26.1807 12.6172 26.4678 12.292 26.8428 12.0342C27.2178 11.7705 27.6689 11.5713 28.1963 11.4365C28.7236 11.3018 29.3125 11.2344 29.9629 11.2344H31.8525ZM37.3809 8.98438V17H35.7549V7.49023H37.3369L37.3809 8.98438ZM40.3516 7.4375L40.3428 8.94922C40.208 8.91992 40.0791 8.90234 39.9561 8.89648C39.8389 8.88477 39.7041 8.87891 39.5518 8.87891C39.1768 8.87891 38.8457 8.9375 38.5586 9.05469C38.2715 9.17188 38.0283 9.33594 37.8291 9.54688C37.6299 9.75781 37.4717 10.0098 37.3545 10.3027C37.2432 10.5898 37.1699 10.9062 37.1348 11.252L36.6777 11.5156C36.6777 10.9414 36.7334 10.4023 36.8447 9.89844C36.9619 9.39453 37.1406 8.94922 37.3809 8.5625C37.6211 8.16992 37.9258 7.86523 38.2949 7.64844C38.6699 7.42578 39.1152 7.31445 39.6309 7.31445C39.748 7.31445 39.8828 7.3291 40.0352 7.3584C40.1875 7.38184 40.293 7.4082 40.3516 7.4375Z" fill="#343434"/>
<path d="M45.4668 13.1328L48.0068 4.20312H49.2373L48.5254 7.6748L45.792 17H44.5703L45.4668 13.1328ZM42.8389 4.20312L44.8604 12.957L45.4668 17H44.2539L41.1514 4.20312H42.8389ZM52.5244 12.9482L54.502 4.20312H56.1982L53.1045 17H51.8916L52.5244 12.9482ZM49.4219 4.20312L51.8916 13.1328L52.7881 17H51.5664L48.9297 7.6748L48.209 4.20312H49.4219ZM63.4404 15.374V10.4785C63.4404 10.1035 63.3643 9.77832 63.2119 9.50293C63.0654 9.22168 62.8428 9.00488 62.5439 8.85254C62.2451 8.7002 61.876 8.62402 61.4365 8.62402C61.0264 8.62402 60.666 8.69434 60.3555 8.83496C60.0508 8.97559 59.8105 9.16016 59.6348 9.38867C59.4648 9.61719 59.3799 9.86328 59.3799 10.127H57.7539C57.7539 9.78711 57.8418 9.4502 58.0176 9.11621C58.1934 8.78223 58.4453 8.48047 58.7734 8.21094C59.1074 7.93555 59.5059 7.71875 59.9688 7.56055C60.4375 7.39648 60.959 7.31445 61.5332 7.31445C62.2246 7.31445 62.834 7.43164 63.3613 7.66602C63.8945 7.90039 64.3105 8.25488 64.6094 8.72949C64.9141 9.19824 65.0664 9.78711 65.0664 10.4961V14.9258C65.0664 15.2422 65.0928 15.5791 65.1455 15.9365C65.2041 16.2939 65.2891 16.6016 65.4004 16.8594V17H63.7041C63.6221 16.8125 63.5576 16.5635 63.5107 16.2529C63.4639 15.9365 63.4404 15.6436 63.4404 15.374ZM63.7217 11.2344L63.7393 12.377H62.0957C61.6328 12.377 61.2197 12.415 60.8564 12.4912C60.4932 12.5615 60.1885 12.6699 59.9424 12.8164C59.6963 12.9629 59.5088 13.1475 59.3799 13.3701C59.251 13.5869 59.1865 13.8418 59.1865 14.1348C59.1865 14.4336 59.2539 14.7061 59.3887 14.9521C59.5234 15.1982 59.7256 15.3945 59.9951 15.541C60.2705 15.6816 60.6074 15.752 61.0059 15.752C61.5039 15.752 61.9434 15.6465 62.3242 15.4355C62.7051 15.2246 63.0068 14.9668 63.2295 14.6621C63.458 14.3574 63.5811 14.0615 63.5986 13.7744L64.293 14.5566C64.252 14.8027 64.1406 15.0752 63.959 15.374C63.7773 15.6729 63.5342 15.96 63.2295 16.2354C62.9307 16.5049 62.5732 16.7305 62.1572 16.9121C61.7471 17.0879 61.2842 17.1758 60.7686 17.1758C60.124 17.1758 59.5586 17.0498 59.0723 16.7979C58.5918 16.5459 58.2168 16.209 57.9473 15.7871C57.6836 15.3594 57.5518 14.8818 57.5518 14.3545C57.5518 13.8447 57.6514 13.3965 57.8506 13.0098C58.0498 12.6172 58.3369 12.292 58.7119 12.0342C59.0869 11.7705 59.5381 11.5713 60.0654 11.4365C60.5928 11.3018 61.1816 11.2344 61.832 11.2344H63.7217ZM73.1611 14.4775C73.1611 14.2432 73.1084 14.0264 73.0029 13.8271C72.9033 13.6221 72.6953 13.4375 72.3789 13.2734C72.0684 13.1035 71.5996 12.957 70.9727 12.834C70.4453 12.7227 69.9678 12.5908 69.54 12.4385C69.1182 12.2861 68.7578 12.1016 68.459 11.8848C68.166 11.668 67.9404 11.4131 67.7822 11.1201C67.624 10.8271 67.5449 10.4844 67.5449 10.0918C67.5449 9.7168 67.627 9.3623 67.791 9.02832C67.9609 8.69434 68.1982 8.39844 68.5029 8.14062C68.8135 7.88281 69.1855 7.68066 69.6191 7.53418C70.0527 7.3877 70.5361 7.31445 71.0693 7.31445C71.8311 7.31445 72.4814 7.44922 73.0205 7.71875C73.5596 7.98828 73.9727 8.34863 74.2598 8.7998C74.5469 9.24512 74.6904 9.74023 74.6904 10.2852H73.0645C73.0645 10.0215 72.9854 9.7666 72.8271 9.52051C72.6748 9.26855 72.4492 9.06055 72.1504 8.89648C71.8574 8.73242 71.4971 8.65039 71.0693 8.65039C70.6182 8.65039 70.252 8.7207 69.9707 8.86133C69.6953 8.99609 69.4932 9.16895 69.3643 9.37988C69.2412 9.59082 69.1797 9.81348 69.1797 10.0479C69.1797 10.2236 69.209 10.3818 69.2676 10.5225C69.332 10.6572 69.4434 10.7832 69.6016 10.9004C69.7598 11.0117 69.9824 11.1172 70.2695 11.2168C70.5566 11.3164 70.9229 11.416 71.3682 11.5156C72.1475 11.6914 72.7891 11.9023 73.293 12.1484C73.7969 12.3945 74.1719 12.6963 74.418 13.0537C74.6641 13.4111 74.7871 13.8447 74.7871 14.3545C74.7871 14.7705 74.6992 15.1514 74.5234 15.4971C74.3535 15.8428 74.1045 16.1416 73.7764 16.3936C73.4541 16.6396 73.0674 16.833 72.6162 16.9736C72.1709 17.1084 71.6699 17.1758 71.1133 17.1758C70.2754 17.1758 69.5664 17.0264 68.9863 16.7275C68.4062 16.4287 67.9668 16.042 67.668 15.5674C67.3691 15.0928 67.2197 14.5918 67.2197 14.0645H68.8545C68.8779 14.5098 69.0068 14.8643 69.2412 15.1279C69.4756 15.3857 69.7627 15.5703 70.1025 15.6816C70.4424 15.7871 70.7793 15.8398 71.1133 15.8398C71.5586 15.8398 71.9307 15.7812 72.2295 15.6641C72.5342 15.5469 72.7656 15.3857 72.9238 15.1807C73.082 14.9756 73.1611 14.7412 73.1611 14.4775ZM78.5488 3.5V17H76.9229V3.5H78.5488ZM78.1621 11.8848L77.4854 11.8584C77.4912 11.208 77.5879 10.6074 77.7754 10.0566C77.9629 9.5 78.2266 9.0166 78.5664 8.60645C78.9062 8.19629 79.3105 7.87988 79.7793 7.65723C80.2539 7.42871 80.7783 7.31445 81.3525 7.31445C81.8213 7.31445 82.2432 7.37891 82.6182 7.50781C82.9932 7.63086 83.3125 7.83008 83.5762 8.10547C83.8457 8.38086 84.0508 8.73828 84.1914 9.17773C84.332 9.61133 84.4023 10.1416 84.4023 10.7686V17H82.7676V10.751C82.7676 10.2529 82.6943 9.85449 82.5479 9.55566C82.4014 9.25098 82.1875 9.03125 81.9062 8.89648C81.625 8.75586 81.2793 8.68555 80.8691 8.68555C80.4648 8.68555 80.0957 8.77051 79.7617 8.94043C79.4336 9.11035 79.1494 9.34473 78.9092 9.64355C78.6748 9.94238 78.4902 10.2852 78.3555 10.6719C78.2266 11.0527 78.1621 11.457 78.1621 11.8848Z" fill="#736D6D"/>
<path d="M8.96767 12.434C8.96767 14.9557 6.77208 17 4.36265 17C1.95323 17 0 14.9557 0 12.434C0 9.91228 0.727101 4.84483 1.93895 2C4.36265 3.2931 9.45241 8.72414 8.96767 12.434Z" fill="#736D6D"/>
</svg>
