<svg width="144" height="36" viewBox="0 0 144 36" fill="none" xmlns="http://www.w3.org/2000/svg">
<path d="M38.3516 21.7178H41.1641C41.0176 23.0654 40.6318 24.2715 40.0068 25.3359C39.3818 26.4004 38.498 27.2451 37.3555 27.8701C36.2129 28.4854 34.7871 28.793 33.0781 28.793C31.8281 28.793 30.6904 28.5586 29.665 28.0898C28.6494 27.6211 27.7754 26.957 27.043 26.0977C26.3105 25.2285 25.7441 24.1885 25.3438 22.9775C24.9531 21.7568 24.7578 20.3994 24.7578 18.9053V16.7812C24.7578 15.2871 24.9531 13.9346 25.3438 12.7236C25.7441 11.5029 26.3154 10.458 27.0576 9.58887C27.8096 8.71973 28.7129 8.05078 29.7676 7.58203C30.8223 7.11328 32.0088 6.87891 33.3271 6.87891C34.9385 6.87891 36.3008 7.18164 37.4141 7.78711C38.5273 8.39258 39.3916 9.23242 40.0068 10.3066C40.6318 11.3711 41.0176 12.6064 41.1641 14.0127H38.3516C38.2148 13.0166 37.9609 12.1621 37.5898 11.4492C37.2188 10.7266 36.6914 10.1699 36.0078 9.7793C35.3242 9.38867 34.4307 9.19336 33.3271 9.19336C32.3799 9.19336 31.5449 9.37402 30.8223 9.73535C30.1094 10.0967 29.5088 10.6094 29.0205 11.2734C28.542 11.9375 28.1807 12.7334 27.9365 13.6611C27.6924 14.5889 27.5703 15.6191 27.5703 16.752V18.9053C27.5703 19.9502 27.6777 20.9316 27.8926 21.8496C28.1172 22.7676 28.4541 23.5732 28.9033 24.2666C29.3525 24.96 29.9238 25.5068 30.6172 25.9072C31.3105 26.2979 32.1309 26.4932 33.0781 26.4932C34.2793 26.4932 35.2363 26.3027 35.9492 25.9219C36.6621 25.541 37.1992 24.9941 37.5605 24.2812C37.9316 23.5684 38.1953 22.7139 38.3516 21.7178ZM53.9521 25.79V17.6309C53.9521 17.0059 53.8252 16.4639 53.5713 16.0049C53.3271 15.5361 52.9561 15.1748 52.458 14.9209C51.96 14.667 51.3447 14.54 50.6123 14.54C49.9287 14.54 49.3281 14.6572 48.8105 14.8916C48.3027 15.126 47.9023 15.4336 47.6094 15.8145C47.3262 16.1953 47.1846 16.6055 47.1846 17.0449H44.4746C44.4746 16.4785 44.6211 15.917 44.9141 15.3604C45.207 14.8037 45.627 14.3008 46.1738 13.8516C46.7305 13.3926 47.3945 13.0312 48.166 12.7676C48.9473 12.4941 49.8164 12.3574 50.7734 12.3574C51.9258 12.3574 52.9414 12.5527 53.8203 12.9434C54.709 13.334 55.4023 13.9248 55.9004 14.7158C56.4082 15.4971 56.6621 16.4785 56.6621 17.6602V25.043C56.6621 25.5703 56.7061 26.1318 56.7939 26.7275C56.8916 27.3232 57.0332 27.8359 57.2188 28.2656V28.5H54.3916C54.2549 28.1875 54.1475 27.7725 54.0693 27.2549C53.9912 26.7275 53.9521 26.2393 53.9521 25.79ZM54.4209 18.8906L54.4502 20.7949H51.7109C50.9395 20.7949 50.251 20.8584 49.6455 20.9854C49.04 21.1025 48.5322 21.2832 48.1221 21.5273C47.7119 21.7715 47.3994 22.0791 47.1846 22.4502C46.9697 22.8115 46.8623 23.2363 46.8623 23.7246C46.8623 24.2227 46.9746 24.6768 47.1992 25.0869C47.4238 25.4971 47.7607 25.8242 48.21 26.0684C48.6689 26.3027 49.2305 26.4199 49.8945 26.4199C50.7246 26.4199 51.457 26.2441 52.0918 25.8926C52.7266 25.541 53.2295 25.1113 53.6006 24.6035C53.9814 24.0957 54.1865 23.6025 54.2158 23.124L55.373 24.4277C55.3047 24.8379 55.1191 25.292 54.8164 25.79C54.5137 26.2881 54.1084 26.7666 53.6006 27.2256C53.1025 27.6748 52.5068 28.0508 51.8135 28.3535C51.1299 28.6465 50.3584 28.793 49.499 28.793C48.4248 28.793 47.4824 28.583 46.6719 28.1631C45.8711 27.7432 45.2461 27.1816 44.7969 26.4785C44.3574 25.7656 44.1377 24.9697 44.1377 24.0908C44.1377 23.2412 44.3037 22.4941 44.6357 21.8496C44.9678 21.1953 45.4463 20.6533 46.0713 20.2236C46.6963 19.7842 47.4482 19.4521 48.3271 19.2275C49.2061 19.0029 50.1875 18.8906 51.2715 18.8906H54.4209ZM63.6348 15.1406V28.5H60.9248V12.6504H63.5615L63.6348 15.1406ZM68.5859 12.5625L68.5713 15.082C68.3467 15.0332 68.1318 15.0039 67.9268 14.9941C67.7314 14.9746 67.5068 14.9648 67.2529 14.9648C66.6279 14.9648 66.0762 15.0625 65.5977 15.2578C65.1191 15.4531 64.7139 15.7266 64.3818 16.0781C64.0498 16.4297 63.7861 16.8496 63.5908 17.3379C63.4053 17.8164 63.2832 18.3438 63.2246 18.9199L62.4629 19.3594C62.4629 18.4023 62.5557 17.5039 62.7412 16.6641C62.9365 15.8242 63.2344 15.082 63.6348 14.4375C64.0352 13.7832 64.543 13.2754 65.1582 12.9141C65.7832 12.543 66.5254 12.3574 67.3848 12.3574C67.5801 12.3574 67.8047 12.3818 68.0586 12.4307C68.3125 12.4697 68.4883 12.5137 68.5859 12.5625Z" fill="#343434"/>
<path d="M77.1113 22.0547L81.3447 7.17188H83.3955L82.209 12.958L77.6533 28.5H75.6172L77.1113 22.0547ZM72.7314 7.17188L76.1006 21.7617L77.1113 28.5H75.0898L69.9189 7.17188H72.7314ZM88.874 21.7471L92.1699 7.17188H94.9971L89.8408 28.5H87.8193L88.874 21.7471ZM83.7031 7.17188L87.8193 22.0547L89.3135 28.5H87.2773L82.8828 12.958L81.6816 7.17188H83.7031ZM107.067 25.79V17.6309C107.067 17.0059 106.94 16.4639 106.687 16.0049C106.442 15.5361 106.071 15.1748 105.573 14.9209C105.075 14.667 104.46 14.54 103.728 14.54C103.044 14.54 102.443 14.6572 101.926 14.8916C101.418 15.126 101.018 15.4336 100.725 15.8145C100.441 16.1953 100.3 16.6055 100.3 17.0449H97.5898C97.5898 16.4785 97.7363 15.917 98.0293 15.3604C98.3223 14.8037 98.7422 14.3008 99.2891 13.8516C99.8457 13.3926 100.51 13.0312 101.281 12.7676C102.062 12.4941 102.932 12.3574 103.889 12.3574C105.041 12.3574 106.057 12.5527 106.936 12.9434C107.824 13.334 108.518 13.9248 109.016 14.7158C109.523 15.4971 109.777 16.4785 109.777 17.6602V25.043C109.777 25.5703 109.821 26.1318 109.909 26.7275C110.007 27.3232 110.148 27.8359 110.334 28.2656V28.5H107.507C107.37 28.1875 107.263 27.7725 107.185 27.2549C107.106 26.7275 107.067 26.2393 107.067 25.79ZM107.536 18.8906L107.565 20.7949H104.826C104.055 20.7949 103.366 20.8584 102.761 20.9854C102.155 21.1025 101.647 21.2832 101.237 21.5273C100.827 21.7715 100.515 22.0791 100.3 22.4502C100.085 22.8115 99.9775 23.2363 99.9775 23.7246C99.9775 24.2227 100.09 24.6768 100.314 25.0869C100.539 25.4971 100.876 25.8242 101.325 26.0684C101.784 26.3027 102.346 26.4199 103.01 26.4199C103.84 26.4199 104.572 26.2441 105.207 25.8926C105.842 25.541 106.345 25.1113 106.716 24.6035C107.097 24.0957 107.302 23.6025 107.331 23.124L108.488 24.4277C108.42 24.8379 108.234 25.292 107.932 25.79C107.629 26.2881 107.224 26.7666 106.716 27.2256C106.218 27.6748 105.622 28.0508 104.929 28.3535C104.245 28.6465 103.474 28.793 102.614 28.793C101.54 28.793 100.598 28.583 99.7871 28.1631C98.9863 27.7432 98.3613 27.1816 97.9121 26.4785C97.4727 25.7656 97.2529 24.9697 97.2529 24.0908C97.2529 23.2412 97.4189 22.4941 97.751 21.8496C98.083 21.1953 98.5615 20.6533 99.1865 20.2236C99.8115 19.7842 100.563 19.4521 101.442 19.2275C102.321 19.0029 103.303 18.8906 104.387 18.8906H107.536ZM123.269 24.2959C123.269 23.9053 123.181 23.5439 123.005 23.2119C122.839 22.8701 122.492 22.5625 121.965 22.2891C121.447 22.0059 120.666 21.7617 119.621 21.5566C118.742 21.3711 117.946 21.1514 117.233 20.8975C116.53 20.6436 115.93 20.3359 115.432 19.9746C114.943 19.6133 114.567 19.1885 114.304 18.7002C114.04 18.2119 113.908 17.6406 113.908 16.9863C113.908 16.3613 114.045 15.7705 114.318 15.2139C114.602 14.6572 114.997 14.1641 115.505 13.7344C116.022 13.3047 116.643 12.9678 117.365 12.7236C118.088 12.4795 118.894 12.3574 119.782 12.3574C121.052 12.3574 122.136 12.582 123.034 13.0312C123.933 13.4805 124.621 14.0811 125.1 14.833C125.578 15.5752 125.817 16.4004 125.817 17.3086H123.107C123.107 16.8691 122.976 16.4443 122.712 16.0342C122.458 15.6143 122.082 15.2676 121.584 14.9941C121.096 14.7207 120.495 14.584 119.782 14.584C119.03 14.584 118.42 14.7012 117.951 14.9355C117.492 15.1602 117.155 15.4482 116.94 15.7998C116.735 16.1514 116.633 16.5225 116.633 16.9131C116.633 17.2061 116.682 17.4697 116.779 17.7041C116.887 17.9287 117.072 18.1387 117.336 18.334C117.6 18.5195 117.971 18.6953 118.449 18.8613C118.928 19.0273 119.538 19.1934 120.28 19.3594C121.579 19.6523 122.648 20.0039 123.488 20.4141C124.328 20.8242 124.953 21.3271 125.363 21.9229C125.773 22.5186 125.979 23.2412 125.979 24.0908C125.979 24.7842 125.832 25.4189 125.539 25.9951C125.256 26.5713 124.841 27.0693 124.294 27.4893C123.757 27.8994 123.112 28.2217 122.36 28.4561C121.618 28.6807 120.783 28.793 119.855 28.793C118.459 28.793 117.277 28.5439 116.311 28.0459C115.344 27.5479 114.611 26.9033 114.113 26.1123C113.615 25.3213 113.366 24.4863 113.366 23.6074H116.091C116.13 24.3496 116.345 24.9404 116.735 25.3799C117.126 25.8096 117.604 26.1172 118.171 26.3027C118.737 26.4785 119.299 26.5664 119.855 26.5664C120.598 26.5664 121.218 26.4688 121.716 26.2734C122.224 26.0781 122.609 25.8096 122.873 25.4678C123.137 25.126 123.269 24.7354 123.269 24.2959ZM132.248 6V28.5H129.538V6H132.248ZM131.604 19.9746L130.476 19.9307C130.485 18.8467 130.646 17.8457 130.959 16.9277C131.271 16 131.711 15.1943 132.277 14.5107C132.844 13.8271 133.518 13.2998 134.299 12.9287C135.09 12.5479 135.964 12.3574 136.921 12.3574C137.702 12.3574 138.405 12.4648 139.03 12.6797C139.655 12.8848 140.188 13.2168 140.627 13.6758C141.076 14.1348 141.418 14.7305 141.652 15.4629C141.887 16.1855 142.004 17.0693 142.004 18.1143V28.5H139.279V18.085C139.279 17.2549 139.157 16.5908 138.913 16.0928C138.669 15.585 138.312 15.2188 137.844 14.9941C137.375 14.7598 136.799 14.6426 136.115 14.6426C135.441 14.6426 134.826 14.7842 134.27 15.0674C133.723 15.3506 133.249 15.7412 132.849 16.2393C132.458 16.7373 132.15 17.3086 131.926 17.9531C131.711 18.5879 131.604 19.2617 131.604 19.9746Z" fill="#374AF0"/>
<path d="M18.5 20.1724C18.5 25.0478 13.9706 29 9 29C4.02944 29 0 25.0478 0 20.1724C0 15.2971 1.49998 5.5 3.99998 0C9 2.5 19.5 13 18.5 20.1724Z" fill="#374AF0"/>
</svg>
