<svg width="14" height="13" viewBox="0 0 14 13" fill="none" xmlns="http://www.w3.org/2000/svg">
<path d="M5.81939 7.59156C6.67755 8.41703 7.7159 9.05435 8.86151 9.45874L10.4113 8.28932C10.4573 8.25931 10.5118 8.24325 10.5676 8.24325C10.6234 8.24325 10.6778 8.25931 10.7238 8.28932L13.6015 10.0473C13.7107 10.1096 13.8032 10.1951 13.8716 10.2971C13.94 10.3991 13.9825 10.5148 13.9956 10.635C14.0088 10.7553 13.9923 10.8767 13.9474 10.9899C13.9025 11.103 13.8305 11.2047 13.7371 11.2869L12.3887 12.5499C12.1956 12.7308 11.9583 12.8636 11.6979 12.9364C11.4375 13.0092 11.1622 13.0197 10.8964 12.967C8.24577 12.4479 5.8026 11.2322 3.84613 9.45874C1.93309 7.66767 0.60927 5.3887 0.0352662 2.89829C-0.0214379 2.65023 -0.00960299 2.39249 0.069624 2.15004C0.148851 1.9076 0.292783 1.68867 0.487472 1.51447L1.8852 0.235907C1.97169 0.151625 2.07718 0.0869906 2.19375 0.0468416C2.31032 0.00669265 2.43496 -0.00793002 2.55833 0.00406858C2.68171 0.0160672 2.80062 0.0543761 2.90617 0.116127C3.01172 0.177878 3.10117 0.26147 3.16782 0.360645L5.08353 3.05421C5.11657 3.09651 5.13441 3.14775 5.13441 3.20039C5.13441 3.25303 5.11657 3.30427 5.08353 3.34657L3.82147 4.78495C4.25952 5.84949 4.942 6.80822 5.81939 7.59156Z" fill="#736D6D"/>
</svg>
